<?xml version="1.0" standalone="no"?>
<!DOCTYPE svg PUBLIC "-//W3C//DTD SVG 20010904//EN"
 "http://www.w3.org/TR/2001/REC-SVG-20010904/DTD/svg10.dtd">
<svg version="1.0" xmlns="http://www.w3.org/2000/svg"
 width="312.000000pt" height="312.000000pt" viewBox="0 0 312.000000 312.000000"
 preserveAspectRatio="xMidYMid meet">
<metadata>
Created by potrace 1.11, written by Peter Selinger 2001-2013
</metadata>
<g transform="translate(0.000000,312.000000) scale(0.100000,-0.100000)"
fill="#000000" stroke="none">
<path d="M55 2790 c-17 -19 -18 -68 -18 -1045 0 -854 2 -1029 13 -1051 13 -24
18 -25 65 -21 27 3 61 8 75 11 53 11 258 45 315 51 33 3 71 8 85 10 29 4 167
16 225 20 234 14 292 18 365 20 78 3 117 -6 105 -25 -2 -3 -7 -33 -10 -66 -3
-32 -8 -84 -11 -114 -8 -61 -11 -101 -13 -142 l-1 -28 -143 0 c-125 0 -146 -2
-159 -17 -39 -46 -25 -89 32 -101 19 -4 290 -7 602 -7 536 1 568 2 588 20 24
22 26 52 4 83 -14 21 -21 22 -165 22 -83 0 -148 4 -145 8 3 5 1 37 -4 73 -5
35 -11 89 -14 119 -3 30 -8 83 -11 117 l-7 61 104 -3 c57 -2 150 -7 208 -10
58 -4 128 -8 155 -10 28 -2 79 -6 115 -9 36 -3 92 -9 125 -12 33 -3 67 -7 75
-9 8 -3 38 -7 65 -10 28 -2 102 -14 165 -26 180 -32 203 -34 220 -14 13 16 15
159 16 1039 0 562 -2 1031 -4 1044 -8 43 -40 47 -175 22 -147 -27 -140 -26
-202 -34 -27 -4 -61 -8 -75 -11 -31 -6 -89 -12 -195 -20 -44 -4 -93 -8 -110
-10 -223 -26 -1388 -26 -1521 -1 -11 2 -60 7 -110 11 -49 4 -97 9 -106 10 -9
2 -44 6 -77 10 -33 3 -70 8 -83 10 -13 3 -43 8 -68 11 -25 3 -85 15 -134 25
-113 24 -139 24 -161 -1z m186 -120 c139 -24 395 -57 564 -72 236 -21 1388
-16 1580 7 22 2 90 9 150 16 61 6 117 13 125 14 161 29 283 46 288 40 9 -8 15
-1810 6 -1849 -6 -26 -9 -28 -43 -22 -123 21 -303 46 -411 56 -69 6 -145 13
-170 15 -281 27 -1234 27 -1570 0 -163 -14 -291 -29 -433 -51 -87 -14 -162
-23 -165 -19 -8 8 -15 1842 -8 1862 6 16 15 16 87 3z m1465 -1910 c0 -14 4
-56 8 -95 4 -38 9 -88 12 -110 2 -22 6 -64 9 -93 l6 -53 -186 1 -186 2 5 26
c6 29 12 85 21 192 3 36 8 74 10 85 2 11 4 32 4 48 l1 28 147 -3 147 -3 2 -25z"/>
<path d="M860 2407 c-67 -17 -131 -75 -163 -147 -16 -36 -21 -73 -25 -185 l-4
-140 -69 -70 c-38 -39 -69 -75 -69 -81 0 -5 25 -34 56 -64 31 -30 62 -69 70
-86 7 -17 14 -74 15 -134 2 -115 17 -195 44 -236 45 -69 111 -106 208 -118
l58 -8 -3 59 -3 58 -58 6 c-59 7 -95 29 -120 74 -6 11 -14 86 -18 167 -8 152
-14 177 -65 244 -30 39 -30 45 0 73 42 39 54 80 61 196 7 137 14 192 26 219
18 38 60 60 121 64 l58 4 0 60 0 59 -42 -2 c-24 -2 -59 -7 -78 -12z"/>
<path d="M2130 2361 l0 -61 46 0 c25 0 60 -7 78 -15 59 -28 69 -62 81 -262 7
-128 13 -146 51 -192 19 -21 34 -43 34 -47 0 -4 -11 -21 -24 -38 -51 -67 -58
-94 -63 -225 -6 -154 -14 -189 -53 -226 -25 -24 -41 -30 -90 -33 l-60 -4 0
-59 c0 -68 2 -69 100 -46 94 22 167 87 191 167 5 19 12 94 16 165 6 148 11
160 92 240 28 27 51 54 51 60 0 5 -29 38 -65 72 -73 71 -72 70 -78 243 -5 133
-22 185 -81 242 -49 47 -87 64 -163 73 l-63 7 0 -61z"/>
<path d="M1690 2331 c-23 -12 -44 -37 -64 -74 -31 -60 -35 -61 -114 -36 -71
23 -92 0 -151 -159 -51 -136 -61 -148 -136 -156 -37 -5 -53 -22 -39 -44 9 -13
25 -17 67 -17 87 1 113 34 191 248 22 60 44 72 91 53 41 -17 42 -27 14 -98
-11 -29 -39 -102 -61 -163 -121 -336 -158 -447 -158 -472 0 -34 38 -174 50
-187 5 -5 23 2 44 17 19 15 38 27 41 27 4 0 24 14 45 30 54 43 59 53 201 450
39 107 88 242 109 300 65 177 68 210 22 255 -48 49 -95 57 -152 26z m115 -81
c8 -26 -4 -87 -21 -101 -14 -11 -75 2 -101 23 -18 15 8 90 36 104 30 15 78 0
86 -26z m-299 -735 c32 -13 35 -18 30 -42 -12 -47 -47 -113 -61 -113 -7 0 -18
-7 -25 -15 -20 -24 -29 -18 -43 33 -14 48 -14 52 18 140 6 16 38 15 81 -3z"/>
</g>
</svg>
